<svg width="115" height="25" viewBox="0 0 115 25" fill="none" xmlns="http://www.w3.org/2000/svg">
<path d="M0.2 20.22L7.79 6.18H13.16L5.57 20.22H0.2ZM0.2 24V20.22H13.16V24H0.2ZM0.2 6.18V2.4H13.16V6.18H0.2ZM51.782 12.66L57.452 2.4H62.102L56.102 12.66H51.782ZM57.212 24L50.792 12.66H56.102L62.462 24H57.212ZM49.052 24V2.4H54.032V24H49.052Z" fill="#F9DB6D"/>
<path d="M24.2516 24V14.19H29.2316V24H24.2516ZM20.8016 24.45L21.7016 20.85C22.1816 20.85 22.6116 20.73 22.9916 20.49C23.3716 20.23 23.6716 19.87 23.8916 19.41C24.1316 18.93 24.2516 18.37 24.2516 17.73L26.2316 17.43C26.2316 18.77 25.9816 19.97 25.4816 21.03C24.9816 22.09 24.3216 22.93 23.5016 23.55C22.6816 24.15 21.7816 24.45 20.8016 24.45ZM20.8016 24.45C19.7816 24.45 18.8816 24.24 18.1016 23.82C17.3416 23.4 16.7516 22.83 16.3316 22.11C15.9116 21.37 15.7016 20.54 15.7016 19.62L20.0816 19.32C20.0816 19.76 20.2316 20.13 20.5316 20.43C20.8516 20.71 21.2416 20.85 21.7016 20.85L20.8016 24.45ZM15.7016 19.62C15.7016 18.68 15.9616 17.85 16.4816 17.13C17.0216 16.39 17.7416 15.81 18.6416 15.39C19.5416 14.95 20.5616 14.73 21.7016 14.73L22.3016 17.73C21.6016 17.73 21.0516 17.87 20.6516 18.15C20.2716 18.43 20.0816 18.82 20.0816 19.32L15.7016 19.62ZM22.3016 17.73L21.7016 14.73H25.1516V17.73H22.3016ZM24.2516 17.73V14.49H26.2316V17.43L24.2516 17.73ZM29.2316 14.52H24.2516C24.2516 13.64 24.0816 12.95 23.7416 12.45C23.4016 11.95 22.9316 11.7 22.3316 11.7V7.92C23.6516 7.92 24.8316 8.21 25.8716 8.79C26.9116 9.35 27.7316 10.13 28.3316 11.13C28.9316 12.13 29.2316 13.26 29.2316 14.52ZM20.4416 14.07L16.0916 13.29C16.2916 12.15 16.6616 11.18 17.2016 10.38C17.7616 9.58 18.4816 8.97 19.3616 8.55C20.2416 8.13 21.2416 7.92 22.3616 7.92V11.7C21.8616 11.7 21.4416 11.91 21.1016 12.33C20.7616 12.73 20.5416 13.31 20.4416 14.07ZM45.4391 8.4V24H40.4591V8.4H45.4391ZM36.6191 8.4V18.21H31.6391V8.4H36.6191ZM36.6191 18.18C36.6191 18.98 36.7691 19.6 37.0691 20.04C37.3891 20.48 37.8291 20.7 38.3891 20.7L36.8891 24.48C35.8891 24.48 34.9891 24.21 34.1891 23.67C33.4091 23.11 32.7891 22.36 32.3291 21.42C31.8691 20.46 31.6391 19.38 31.6391 18.18H36.6191ZM41.8391 17.88C41.8391 19.14 41.6191 20.27 41.1791 21.27C40.7591 22.25 40.1691 23.03 39.4091 23.61C38.6691 24.19 37.8291 24.48 36.8891 24.48L38.3891 20.7C39.0291 20.7 39.5291 20.45 39.8891 19.95C40.2691 19.45 40.4591 18.76 40.4591 17.88H41.8391ZM64.6611 18.21V2.4H69.6411V18.21H64.6611ZM62.9211 12V8.4H73.4211V12H62.9211ZM64.6611 18.18H69.6411C69.6411 18.7 69.7111 19.15 69.8511 19.53C69.9911 19.91 70.1911 20.2 70.4511 20.4C70.7311 20.6 71.0511 20.7 71.4111 20.7L70.8111 24.48C68.8711 24.48 67.3611 23.93 66.2811 22.83C65.2011 21.71 64.6611 20.16 64.6611 18.18ZM72.7311 20.19L74.4711 23.28C73.8511 23.72 73.2411 24.03 72.6411 24.21C72.0611 24.39 71.4511 24.48 70.8111 24.48L71.4111 20.7C71.6711 20.7 71.9111 20.66 72.1311 20.58C72.3511 20.48 72.5511 20.35 72.7311 20.19ZM76.598 24V8.4H81.578V24H76.598ZM79.058 6.3C78.278 6.3 77.638 6.05 77.138 5.55C76.638 5.05 76.388 4.41 76.388 3.63C76.388 2.87 76.638 2.23 77.138 1.71C77.638 1.17 78.278 0.899999 79.058 0.899999C79.818 0.899999 80.458 1.17 80.978 1.71C81.518 2.23 81.788 2.87 81.788 3.63C81.788 4.41 81.518 5.05 80.978 5.55C80.458 6.05 79.818 6.3 79.058 6.3ZM93.245 17.28V15.12H98.225V17.28H93.245ZM84.425 17.28V15.12H89.405V17.28H84.425ZM91.145 11.73V7.95H91.505V11.73H91.145ZM91.145 24.45V20.67H91.505V24.45H91.145ZM84.425 15.15C84.425 13.77 84.715 12.54 85.295 11.46C85.895 10.38 86.705 9.53 87.725 8.91C88.745 8.27 89.895 7.95 91.175 7.95V11.73C90.615 11.73 90.175 12.03 89.855 12.63C89.555 13.23 89.405 14.07 89.405 15.15H84.425ZM98.225 15.15H93.245C93.245 14.07 93.085 13.23 92.765 12.63C92.465 12.03 92.035 11.73 91.475 11.73V7.95C92.775 7.95 93.925 8.27 94.925 8.91C95.945 9.53 96.745 10.38 97.325 11.46C97.925 12.54 98.225 13.77 98.225 15.15ZM84.425 17.25H89.405C89.405 18.33 89.555 19.17 89.855 19.77C90.175 20.37 90.615 20.67 91.175 20.67V24.45C89.895 24.45 88.745 24.14 87.725 23.52C86.705 22.88 85.895 22.02 85.295 20.94C84.715 19.84 84.425 18.61 84.425 17.25ZM98.225 17.25C98.225 18.61 97.925 19.84 97.325 20.94C96.745 22.02 95.945 22.88 94.925 23.52C93.925 24.14 92.775 24.45 91.475 24.45V20.67C92.035 20.67 92.465 20.37 92.765 19.77C93.085 19.17 93.245 18.33 93.245 17.25H98.225ZM100.79 24V8.4H105.77V24H100.79ZM109.61 24V14.19H114.59V24H109.61ZM109.61 14.22C109.61 13.42 109.45 12.8 109.13 12.36C108.83 11.92 108.4 11.7 107.84 11.7L109.34 7.92C110.34 7.92 111.23 8.2 112.01 8.76C112.81 9.3 113.44 10.05 113.9 11.01C114.36 11.95 114.59 13.02 114.59 14.22H109.61ZM104.39 14.52C104.39 13.26 104.6 12.13 105.02 11.13C105.46 10.13 106.05 9.35 106.79 8.79C107.55 8.21 108.4 7.92 109.34 7.92L107.84 11.7C107.2 11.7 106.69 11.95 106.31 12.45C105.95 12.95 105.77 13.64 105.77 14.52H104.39Z" fill="white"/>
</svg>
